<svg xmlns="http://www.w3.org/2000/svg" version="1.1" xmlns:xlink="http://www.w3.org/1999/xlink" xmlns:svgjs="http://svgjs.dev/svgjs" width="1500" height="1500" viewBox="0 0 1500 1500"><rect width="1500" height="1500" fill="#000000"></rect><g transform="matrix(0.6666666666666666,0,0,0.6666666666666666,249.94442319315698,432.2574898785425)"><svg viewBox="0 0 388 247" data-background-color="#ddcaea" preserveAspectRatio="xMidYMid meet" height="954" width="1500" xmlns="http://www.w3.org/2000/svg" xmlns:xlink="http://www.w3.org/1999/xlink"><g id="tight-bounds" transform="matrix(1,0,0,1,0.0215638010550947,-0.09999999999999432)"><svg viewBox="0 0 387.9568723978898 247.2" height="247.2" width="387.9568723978898"><g><svg viewBox="0 0 397.4975999999999 253.2792011459015" height="247.2" width="387.9568723978898"><g><rect width="397.4975999999999" height="5.101285079587739" x="0" y="135.0138126334053" fill="#ffffff" opacity="1" stroke-width="0" stroke="transparent" fill-opacity="1" class="rect-qz-0" data-fill-palette-color="primary" rx="1%" id="qz-0" data-palette-color="#ff7c5e"></rect></g><g><rect width="397.4975999999999" height="5.101285079587739" x="0" y="146.7921724244953" fill="#ffffff" opacity="1" stroke-width="0" stroke="transparent" fill-opacity="1" class="rect-qz-1" data-fill-palette-color="primary" rx="1%" id="qz-1" data-palette-color="#ff7c5e"></rect></g><g transform="matrix(1,0,0,1,0.9887999999999693,165.2476069270876)"><svg viewBox="0 0 395.52 88.03159421881386" height="88.03159421881386" width="395.52"><g id="textblocktransform"><svg viewBox="0 0 395.52 88.03159421881386" height="88.03159421881386" width="395.52" id="textblock"><g><svg viewBox="0 0 395.52 56.56716236722306" height="56.56716236722306" width="395.52"><g transform="matrix(1,0,0,1,0,0)"><svg width="395.52" viewBox="4 -37.5 263.57 37.7" height="56.56716236722306" data-palette-color="#ff7c5e"><path d="M7.4 0L4 0 4-35 7.4-35 7.4-18.3 19.45-35 23.35-35 11.1-18.55 25.75 0 21.85 0 7.4-18.3 7.4 0ZM29.95-19.9L29.05-22.3Q34.5-25 38.6-25.15L38.6-25.15Q41.85-25.15 43.62-24.33 45.4-23.5 46.5-22.03 47.6-20.55 47.6-17.9L47.6-17.9 47.6 0 44.35 0 44.35-1.9Q37.5 0.2 35.55 0.2L35.55 0.2Q35.45 0.2 35.4 0.2L35.4 0.2Q30.9 0.2 29.25-2.55L29.25-2.55Q28.65-3.55 28.57-4.5 28.5-5.45 28.5-6.1L28.5-6.1Q28.5-7.9 29.9-9.33 31.3-10.75 33.25-11.25L33.25-11.25Q36.55-12.1 44.35-12.75L44.35-12.75 44.35-16.8Q44.35-22.25 38.65-22.25L38.65-22.25Q34.65-22.25 29.95-19.9L29.95-19.9ZM31.55-5.7L31.55-5.7Q31.55-2.1 36.5-2.1L36.5-2.1Q40.45-2.1 44.35-3.8L44.35-3.8 44.35-10.95Q36.55-9.85 34.7-9.25L34.7-9.25Q31.55-8.25 31.55-5.7ZM55.84-37.5L55.84-23Q58.8-25.45 62.55-25.45L62.55-25.45Q68.94-25.45 71.5-19.8L71.5-19.8Q72.5-17.5 72.5-13.85L72.5-13.85Q72.5-7.1 68.94-3.55 65.39 0 59.74 0L59.74 0Q56.45 0 54.72-0.45 52.99-0.9 52.59-1.15L52.59-1.15 52.59-37.25 55.84-37.5ZM55.84-21.25L55.84-21.25 55.84-2.8Q57.3-2.45 58.99-2.45L58.99-2.45Q63.99-2.45 66.62-5.35 69.25-8.25 69.25-13.5 69.25-18.75 66.59-21L66.59-21Q64.75-22.55 61.8-22.55 58.84-22.55 55.84-21.25ZM77.34-19.9L76.44-22.3Q81.89-25 85.99-25.15L85.99-25.15Q89.24-25.15 91.02-24.33 92.79-23.5 93.89-22.03 94.99-20.55 94.99-17.9L94.99-17.9 94.99 0 91.74 0 91.74-1.9Q84.89 0.2 82.94 0.2L82.94 0.2Q82.84 0.2 82.79 0.2L82.79 0.2Q78.29 0.2 76.64-2.55L76.64-2.55Q76.04-3.55 75.97-4.5 75.89-5.45 75.89-6.1L75.89-6.1Q75.89-7.9 77.29-9.33 78.69-10.75 80.64-11.25L80.64-11.25Q83.94-12.1 91.74-12.75L91.74-12.75 91.74-16.8Q91.74-22.25 86.04-22.25L86.04-22.25Q82.04-22.25 77.34-19.9L77.34-19.9ZM78.94-5.7L78.94-5.7Q78.94-2.1 83.89-2.1L83.89-2.1Q87.84-2.1 91.74-3.8L91.74-3.8 91.74-10.95Q83.94-9.85 82.09-9.25L82.09-9.25Q78.94-8.25 78.94-5.7ZM114.34-24.5L113.04-21.5Q112.24-21.95 111.34-21.95 110.44-21.95 110.34-21.9L110.34-21.9Q108.44-21.9 106.52-20.53 104.59-19.15 103.24-17.45L103.24-17.45 103.24 0 99.99 0 99.99-25 103.24-25.25 103.24-19.65Q105.09-22 106.39-22.95L106.39-22.95Q108.79-24.75 110.99-24.85L110.99-24.85Q111.29-24.9 112.09-24.9 112.89-24.9 114.34-24.5L114.34-24.5ZM136.69 0L133.28 0 133.28-35 136.69-35 136.69-18.3 148.74-35 152.63-35 140.38-18.55 155.03 0 151.13 0 136.69-18.3 136.69 0ZM163.98-3.2L163.98-3.2Q165.08-2.8 167.48-2.8 169.88-2.8 173.68-4.75L173.68-4.75 173.68-25 176.93-25.25 176.93 0 173.68 0 173.68-2.7Q169.98 0.15 166.13 0.15L166.13 0.15Q161.33 0.15 159.18-2.7L159.18-2.7Q158.08-4.1 158.08-6.6L158.08-6.6 158.08-25 161.33-25.25 161.33-7.45Q161.33-4.35 163.98-3.2ZM187.18 0L183.93 0 183.93-37.25 187.18-37.5 187.18 0ZM193.23-25L196.48-25.25 196.48 0 193.23 0 193.23-25ZM194.73-31.7Q193.73-31.7 193.2-32.35 192.68-33 192.68-34 192.68-35 193.25-35.63 193.83-36.25 194.83-36.25 195.83-36.25 196.45-35.63 197.08-35 197.08-33.9 197.08-32.8 196.4-32.25 195.73-31.7 194.73-31.7ZM206.33-25.25L206.33-22.25Q210.08-25 213.43-25.15L213.43-25.15Q216.48-25.15 218.13-24.4 219.78-23.65 220.85-22.28 221.93-20.9 221.93-18.4L221.93-18.4 221.93 0 218.68 0 218.68-17.55Q218.68-19.4 217.88-20.4L217.88-20.4Q216.28-22.25 212.98-22.25L212.98-22.25Q209.83-22.1 206.33-20.2L206.33-20.2 206.33 0 203.08 0 203.08-25 206.33-25.25ZM230.92-12.3L230.92-11.5Q230.92-2.7 239.32-2.7L239.32-2.7Q242.87-2.7 245.82-3.65L245.82-3.65Q246.57-3.9 246.87-4.05L246.87-4.05 247.62-1.4Q245.87-0.35 241.27 0.1L241.27 0.1Q239.97 0.2 238.52 0.2L238.52 0.2Q234.32 0.2 231.52-1.9L231.52-1.9Q227.67-4.75 227.67-11.4 227.67-18.05 231.15-21.63 234.62-25.2 239.57-25.2 244.52-25.2 247.02-22L247.02-22Q248.92-19.45 248.92-15.25L248.92-15.25Q248.92-14.25 248.82-13.15L248.82-13.15 230.97-13.15Q230.92-12.75 230.92-12.3L230.92-12.3ZM239.77-22.1L239.77-22.1Q236.67-22.1 234.47-20.23 232.27-18.35 231.42-15.4L231.42-15.4 245.97-15.4Q245.72-20.95 241.67-21.85L241.67-21.85Q240.77-22.1 239.77-22.1ZM267.57-24.5L266.27-21.5Q265.47-21.95 264.57-21.95 263.67-21.95 263.57-21.9L263.57-21.9Q261.67-21.9 259.75-20.53 257.82-19.15 256.47-17.45L256.47-17.45 256.47 0 253.22 0 253.22-25 256.47-25.25 256.47-19.65Q258.32-22 259.62-22.95L259.62-22.95Q262.02-24.75 264.22-24.85L264.22-24.85Q264.52-24.9 265.32-24.9 266.12-24.9 267.57-24.5L267.57-24.5Z" opacity="1" transform="matrix(1,0,0,1,0,0)" fill="#ffffff" class="wordmark-text-0" data-fill-palette-color="primary" id="text-0"></path></svg></g></svg></g><g transform="matrix(1,0,0,1,0,69.92131179022762)"><svg viewBox="0 0 395.52 18.110282428586245" height="18.110282428586245" width="395.52"><g transform="matrix(1,0,0,1,0,0)"><svg width="395.52" viewBox="2.410625 -37.6 1001.239375 45.85" height="18.110282428586245" data-palette-color="#ff7c5e"><path d="M24.9-30.2L24.9-30.2Q23.6-31.75 21.55-32.85 19.5-33.95 16.4-33.95L16.4-33.95Q12.65-33.95 10.5-32.3 8.35-30.65 8.35-27.7L8.35-27.7Q8.35-26.9 8.72-25.85 9.1-24.8 10.25-23.8 11.4-22.8 13.7-22L13.7-22 20.95-19.6Q25.5-18.1 27.4-15.63 29.3-13.15 29.3-9.8L29.3-9.8Q29.3-6.6 27.7-4.28 26.1-1.95 23.15-0.73 20.2 0.5 16.05 0.5L16.05 0.5Q13.05 0.5 10.5-0.23 7.95-0.95 5.98-2.33 4-3.7 2.6-5.75L2.6-5.75Q2.35-6.1 2.43-6.38 2.5-6.65 2.9-6.95L2.9-6.95 4.7-8.2Q5.2-8.5 5.48-8.5 5.75-8.5 5.95-8.2L5.95-8.2Q7.3-6.5 8.6-5.38 9.9-4.25 11.63-3.7 13.35-3.15 15.85-3.15L15.85-3.15Q19.8-3.15 22.25-4.58 24.7-6 24.7-9.3L24.7-9.3Q24.7-10.55 24.2-11.58 23.7-12.6 22.5-13.48 21.3-14.35 19.05-15.2L19.05-15.2 11.45-17.8Q8.7-18.75 7-20.25 5.3-21.75 4.53-23.55 3.75-25.35 3.75-27.25L3.75-27.25Q3.75-30.4 5.35-32.73 6.95-35.05 9.78-36.33 12.6-37.6 16.4-37.6L16.4-37.6Q18.95-37.6 21.08-37 23.2-36.4 24.98-35.3 26.75-34.2 28.1-32.65L28.1-32.65Q28.3-32.45 28.35-32.2 28.4-31.95 28.1-31.7L28.1-31.7 25.8-29.9Q25.55-29.75 25.4-29.83 25.25-29.9 24.9-30.2L24.9-30.2ZM36.6 0L36.6 0Q36.25 0 36.07-0.18 35.9-0.35 35.9-0.65L35.9-0.65 35.9-25.85Q35.9-26.5 36.45-26.5L36.45-26.5 39.35-26.5Q39.9-26.5 39.9-25.95L39.9-25.95 39.9-22.7Q39.9-22.4 40.05-22.35 40.2-22.3 40.45-22.55L40.45-22.55Q41.75-24.1 43.02-25.08 44.3-26.05 45.6-26.53 46.9-27 48.2-27L48.2-27Q49.95-27 49.95-26.35L49.95-26.35 49.95-23.35Q49.95-22.85 49.5-22.95L49.5-22.95Q49.05-23 48.47-23.05 47.9-23.1 47.25-23.1L47.25-23.1Q46.15-23.1 44.9-22.63 43.65-22.15 42.57-21.3 41.5-20.45 40.8-19.4 40.1-18.35 40.1-17.3L40.1-17.3 40.1-0.75Q40.1 0 39.35 0L39.35 0 36.6 0ZM64.05-2.8L64.05-2.8Q66.2-2.8 68.17-3.98 70.15-5.15 72.1-7.15L72.1-7.15 72.1-25.75Q72.1-26.5 72.9-26.5L72.9-26.5 75.65-26.5Q76.35-26.5 76.35-25.8L76.35-25.8 76.25-0.65Q76.25 0 75.7 0L75.7 0 72.8 0Q72.25 0 72.25-0.55L72.25-0.55 72.25-3.5Q72.25-3.75 72.15-3.8 72.05-3.85 71.8-3.65L71.8-3.65Q69.05-1.3 66.92-0.4 64.8 0.5 62.7 0.5L62.7 0.5Q60.4 0.5 58.6-0.45 56.8-1.4 55.75-3.13 54.7-4.85 54.7-7.15L54.7-7.15 54.7-25.7Q54.7-26.5 55.45-26.5L55.45-26.5 58.25-26.5Q58.9-26.5 58.9-25.8L58.9-25.8 58.9-8.25Q58.9-5.8 60.27-4.3 61.65-2.8 64.05-2.8L64.05-2.8ZM97.34-23.35L90.99-23.35Q90.59-23.35 90.59-22.95L90.59-22.95 90.59-7.1Q90.59-4.75 91.39-3.95 92.19-3.15 93.79-3.15L93.79-3.15 97.24-3.15Q97.49-3.15 97.64-3.03 97.79-2.9 97.79-2.6L97.79-2.6 97.74-0.9Q97.74-0.4 97.14-0.25L97.14-0.25Q96.64-0.15 95.72-0.1 94.79-0.05 93.92-0.03 93.04 0 92.44 0L92.44 0Q89.29 0 87.84-1.48 86.39-2.95 86.39-6.15L86.39-6.15 86.39-22.85Q86.39-23.35 85.89-23.35L85.89-23.35 81.89-23.35Q81.34-23.35 81.34-23.9L81.34-23.9 81.34-26Q81.34-26.5 81.84-26.5L81.84-26.5 86.09-26.5Q86.44-26.5 86.44-26.9L86.44-26.9 86.99-34.85Q87.04-35.5 87.54-35.5L87.54-35.5 90.04-35.5Q90.64-35.5 90.64-34.8L90.64-34.8 90.64-26.9Q90.64-26.5 91.04-26.5L91.04-26.5 97.34-26.5Q97.89-26.5 97.89-26.05L97.89-26.05 97.89-23.9Q97.89-23.35 97.34-23.35L97.34-23.35ZM112.34-2.8L112.34-2.8Q114.49-2.8 116.47-3.98 118.44-5.15 120.39-7.15L120.39-7.15 120.39-25.75Q120.39-26.5 121.19-26.5L121.19-26.5 123.94-26.5Q124.64-26.5 124.64-25.8L124.64-25.8 124.54-0.65Q124.54 0 123.99 0L123.99 0 121.09 0Q120.54 0 120.54-0.55L120.54-0.55 120.54-3.5Q120.54-3.75 120.44-3.8 120.34-3.85 120.09-3.65L120.09-3.65Q117.34-1.3 115.22-0.4 113.09 0.5 110.99 0.5L110.99 0.5Q108.69 0.5 106.89-0.45 105.09-1.4 104.04-3.13 102.99-4.85 102.99-7.15L102.99-7.15 102.99-25.7Q102.99-26.5 103.74-26.5L103.74-26.5 106.54-26.5Q107.19-26.5 107.19-25.8L107.19-25.8 107.19-8.25Q107.19-5.8 108.57-4.3 109.94-2.8 112.34-2.8L112.34-2.8ZM135.74-26.5L135.74-26.5Q136.44-26.5 136.44-25.75L136.44-25.75 136.44-23.65Q136.44-23.25 136.61-23.23 136.79-23.2 137.09-23.45L137.09-23.45Q137.64-24.05 138.59-24.88 139.54-25.7 141.06-26.35 142.59-27 144.94-27L144.94-27Q147.99-27 150.46-25.53 152.94-24.05 154.41-21.1 155.89-18.15 155.89-13.65L155.89-13.65Q155.89-9.15 154.44-6 152.99-2.85 150.41-1.18 147.84 0.5 144.39 0.5L144.39 0.5Q142.09 0.5 140.31-0.23 138.54-0.95 137.29-2L137.29-2Q136.84-2.4 136.66-2.33 136.49-2.25 136.49-1.7L136.49-1.7 136.49 7.6Q136.49 8.25 135.94 8.25L135.94 8.25 132.84 8.25Q132.29 8.25 132.29 7.6L132.29 7.6 132.29-25.7Q132.29-26.15 132.46-26.33 132.64-26.5 133.09-26.5L133.09-26.5 135.74-26.5ZM136.49-5.85L136.49-5.85Q138.04-4.35 139.66-3.45 141.29-2.55 143.29-2.55L143.29-2.55Q145.69-2.55 147.56-3.8 149.44-5.05 150.51-7.5 151.59-9.95 151.59-13.6L151.59-13.6Q151.59-17.25 150.49-19.55 149.39-21.85 147.56-22.9 145.74-23.95 143.54-23.95L143.54-23.95Q141.49-23.95 139.89-23.05 138.29-22.15 137.39-20.83 136.49-19.5 136.49-18.2L136.49-18.2 136.49-5.85ZM195.73-0.8L195.73-0.8Q195.93-0.5 195.83-0.25 195.73 0 195.28 0L195.28 0 191.78 0Q191.48 0 191.26-0.15 191.03-0.3 190.88-0.6L190.88-0.6 183.33-13.55Q183.23-13.75 183.11-13.83 182.98-13.9 182.73-13.65L182.73-13.65 177.43-8.3Q177.23-8.1 177.16-7.88 177.08-7.65 177.08-7.3L177.08-7.3 177.08-0.85Q177.08-0.35 176.91-0.18 176.73 0 176.18 0L176.18 0 173.63 0Q173.13 0 173.01-0.15 172.88-0.3 172.88-0.7L172.88-0.7 172.88-36.4Q172.88-37.1 173.43-37.1L173.43-37.1 176.48-37.1Q177.08-37.1 177.08-36.45L177.08-36.45 177.08-13.25Q177.08-12.85 177.18-12.78 177.28-12.7 177.58-13.05L177.58-13.05 189.93-25.9Q190.48-26.5 190.98-26.5L190.98-26.5 194.03-26.5Q194.53-26.5 194.61-26.23 194.68-25.95 194.28-25.55L194.28-25.55 186.38-17.5Q186.23-17.35 186.21-17.15 186.18-16.95 186.33-16.65L186.33-16.65 195.73-0.8ZM210.73 0.5L210.73 0.5Q206.98 0.5 204.1-1.23 201.23-2.95 199.66-6.03 198.08-9.1 198.08-13.1L198.08-13.1Q198.08-17.25 199.71-20.38 201.33-23.5 204.18-25.25 207.03-27 210.78-27L210.78-27Q214.58-27 217.41-25.23 220.23-23.45 221.81-20.33 223.38-17.2 223.38-13.15L223.38-13.15Q223.38-9.15 221.78-6.08 220.18-3 217.36-1.25 214.53 0.5 210.73 0.5L210.73 0.5ZM210.83-2.65L210.83-2.65Q213.43-2.65 215.28-3.93 217.13-5.2 218.11-7.58 219.08-9.95 219.08-13.25L219.08-13.25Q219.08-16.55 218.08-18.93 217.08-21.3 215.23-22.6 213.38-23.9 210.78-23.9L210.78-23.9Q208.23-23.9 206.33-22.6 204.43-21.3 203.41-18.93 202.38-16.55 202.38-13.25L202.38-13.25Q202.38-10 203.41-7.6 204.43-5.2 206.33-3.93 208.23-2.65 210.83-2.65L210.83-2.65ZM233.03-26.5L233.03-26.5Q233.73-26.5 233.73-25.75L233.73-25.75 233.73-23.65Q233.73-23.25 233.9-23.23 234.08-23.2 234.38-23.45L234.38-23.45Q234.93-24.05 235.88-24.88 236.83-25.7 238.35-26.35 239.88-27 242.23-27L242.23-27Q245.28-27 247.75-25.53 250.23-24.05 251.7-21.1 253.18-18.15 253.18-13.65L253.18-13.65Q253.18-9.15 251.73-6 250.28-2.85 247.7-1.18 245.13 0.5 241.68 0.5L241.68 0.5Q239.38 0.5 237.6-0.23 235.83-0.95 234.58-2L234.58-2Q234.13-2.4 233.95-2.33 233.78-2.25 233.78-1.7L233.78-1.7 233.78 7.6Q233.78 8.25 233.23 8.25L233.23 8.25 230.13 8.25Q229.58 8.25 229.58 7.6L229.58 7.6 229.58-25.7Q229.58-26.15 229.75-26.33 229.93-26.5 230.38-26.5L230.38-26.5 233.03-26.5ZM233.78-5.85L233.78-5.85Q235.33-4.35 236.95-3.45 238.58-2.55 240.58-2.55L240.58-2.55Q242.98-2.55 244.85-3.8 246.73-5.05 247.8-7.5 248.88-9.95 248.88-13.6L248.88-13.6Q248.88-17.25 247.78-19.55 246.68-21.85 244.85-22.9 243.03-23.95 240.83-23.95L240.83-23.95Q238.78-23.95 237.18-23.05 235.58-22.15 234.68-20.83 233.78-19.5 233.78-18.2L233.78-18.2 233.78-5.85ZM263.63-25.85L263.63-0.85Q263.63-0.35 263.45-0.18 263.28 0 262.73 0L262.73 0 260.18 0Q259.73 0 259.58-0.15 259.43-0.3 259.43-0.7L259.43-0.7 259.43-25.8Q259.43-26.5 260.03-26.5L260.03-26.5 263.08-26.5Q263.63-26.5 263.63-25.85L263.63-25.85ZM263.83-36.35L263.83-32.2Q263.83-31.25 262.93-31.25L262.93-31.25 260.03-31.25Q259.58-31.25 259.43-31.48 259.28-31.7 259.28-32.1L259.28-32.1 259.28-36.3Q259.28-37.1 259.98-37.1L259.98-37.1 263.13-37.1Q263.83-37.1 263.83-36.35L263.83-36.35ZM272.07 0L272.07 0Q271.37 0 271.37-0.65L271.37-0.65 271.37-25.85Q271.37-26.5 271.92-26.5L271.92-26.5 274.92-26.5Q275.42-26.5 275.42-25.95L275.42-25.95 275.42-23.05Q275.42-22.8 275.55-22.75 275.67-22.7 275.92-22.9L275.92-22.9Q277.52-24.2 278.9-25.13 280.27-26.05 281.7-26.53 283.12-27 284.77-27L284.77-27Q287.72-27 289.5-25.65 291.27-24.3 291.87-22.6L291.87-22.6Q291.97-22.4 292.17-22.45 292.37-22.5 292.57-22.7L292.57-22.7Q294.17-24.05 295.6-25 297.02-25.95 298.5-26.48 299.97-27 301.62-27L301.62-27Q305.27-27 307.27-24.93 309.27-22.85 309.27-19.35L309.27-19.35 309.27-0.8Q309.27 0 308.52 0L308.52 0 305.72 0Q305.37 0 305.22-0.18 305.07-0.35 305.07-0.65L305.07-0.65 305.07-18.5Q305.07-20.95 303.9-22.33 302.72-23.7 300.22-23.7L300.22-23.7Q298.77-23.7 297.45-23.15 296.12-22.6 295.05-21.8 293.97-21 293.12-20.3L293.12-20.3Q292.72-19.95 292.57-19.63 292.42-19.3 292.42-18.8L292.42-18.8 292.42-0.8Q292.42 0 291.67 0L291.67 0 288.87 0Q288.57 0 288.4-0.18 288.22-0.35 288.22-0.65L288.22-0.65 288.22-18.5Q288.22-20.95 287.07-22.33 285.92-23.7 283.42-23.7L283.42-23.7Q281.32-23.7 279.57-22.7 277.82-21.7 275.57-19.65L275.57-19.65 275.57-0.75Q275.57 0 274.82 0L274.82 0 272.07 0ZM325.67-2.8L325.67-2.8Q327.82-2.8 329.8-3.98 331.77-5.15 333.72-7.15L333.72-7.15 333.72-25.75Q333.72-26.5 334.52-26.5L334.52-26.5 337.27-26.5Q337.97-26.5 337.97-25.8L337.97-25.8 337.87-0.65Q337.87 0 337.32 0L337.32 0 334.42 0Q333.87 0 333.87-0.55L333.87-0.55 333.87-3.5Q333.87-3.75 333.77-3.8 333.67-3.85 333.42-3.65L333.42-3.65Q330.67-1.3 328.55-0.4 326.42 0.5 324.32 0.5L324.32 0.5Q322.02 0.5 320.22-0.45 318.42-1.4 317.37-3.13 316.32-4.85 316.32-7.15L316.32-7.15 316.32-25.7Q316.32-26.5 317.07-26.5L317.07-26.5 319.87-26.5Q320.52-26.5 320.52-25.8L320.52-25.8 320.52-8.25Q320.52-5.8 321.9-4.3 323.27-2.8 325.67-2.8L325.67-2.8ZM344.37 7.15L344.37 7.15Q344.12 7.15 344.02 6.95 343.92 6.75 344.02 6.4L344.02 6.4 346.27 0.8Q346.62 0 345.87 0L345.87 0 345.22 0Q344.57 0 344.57-0.6L344.57-0.6 344.57-5.05Q344.57-5.6 345.02-5.6L345.02-5.6 349.22-5.6Q349.72-5.6 349.72-5.1L349.72-5.1 349.72-1Q349.72-0.7 349.57-0.4L349.57-0.4 345.92 6.6Q345.77 6.85 345.49 7 345.22 7.15 344.92 7.15L344.92 7.15 344.37 7.15ZM367.61 0L367.61 0Q366.91 0 366.91-0.65L366.91-0.65 366.91-25.85Q366.91-26.5 367.46-26.5L367.46-26.5 370.46-26.5Q370.96-26.5 370.96-25.95L370.96-25.95 370.96-23.05Q370.96-22.8 371.09-22.75 371.21-22.7 371.46-22.9L371.46-22.9Q373.06-24.2 374.44-25.13 375.81-26.05 377.24-26.53 378.66-27 380.31-27L380.31-27Q383.26-27 385.04-25.65 386.81-24.3 387.41-22.6L387.41-22.6Q387.51-22.4 387.71-22.45 387.91-22.5 388.11-22.7L388.11-22.7Q389.71-24.05 391.14-25 392.56-25.95 394.04-26.48 395.51-27 397.16-27L397.16-27Q400.81-27 402.81-24.93 404.81-22.85 404.81-19.35L404.81-19.35 404.81-0.8Q404.81 0 404.06 0L404.06 0 401.26 0Q400.91 0 400.76-0.18 400.61-0.35 400.61-0.65L400.61-0.65 400.61-18.5Q400.61-20.95 399.44-22.33 398.26-23.7 395.76-23.7L395.76-23.7Q394.31-23.7 392.99-23.15 391.66-22.6 390.59-21.8 389.51-21 388.66-20.3L388.66-20.3Q388.26-19.95 388.11-19.63 387.96-19.3 387.96-18.8L387.96-18.8 387.96-0.8Q387.96 0 387.21 0L387.21 0 384.41 0Q384.11 0 383.94-0.18 383.76-0.35 383.76-0.65L383.76-0.65 383.76-18.5Q383.76-20.95 382.61-22.33 381.46-23.7 378.96-23.7L378.96-23.7Q376.86-23.7 375.11-22.7 373.36-21.7 371.11-19.65L371.11-19.65 371.11-0.75Q371.11 0 370.36 0L370.36 0 367.61 0ZM427.46-3.2L427.46-3.2Q425.61-1.4 423.44-0.45 421.26 0.5 418.56 0.5L418.56 0.5Q414.66 0.5 412.44-1.5 410.21-3.5 410.21-6.75L410.21-6.75Q410.21-9.4 411.71-11.33 413.21-13.25 416.16-14.38 419.11-15.5 423.41-15.75L423.41-15.75 427.31-16.05Q427.61-16.1 427.86-16.25 428.11-16.4 428.11-16.8L428.11-16.8 428.11-18.15Q428.11-20.85 426.44-22.43 424.76-24 421.91-24L421.91-24Q419.71-24 417.94-23 416.16-22 414.76-20L414.76-20Q414.56-19.75 414.44-19.68 414.31-19.6 414.01-19.7L414.01-19.7 411.31-20.6Q411.16-20.7 411.09-20.85 411.01-21 411.21-21.4L411.21-21.4Q412.71-24 415.44-25.5 418.16-27 422.11-27L422.11-27Q425.46-27 427.69-25.98 429.91-24.95 431.04-23.03 432.16-21.1 432.16-18.45L432.16-18.45 432.16-0.75Q432.16-0.3 432.01-0.15 431.86 0 431.51 0L431.51 0 428.96 0Q428.61 0 428.46-0.23 428.31-0.45 428.26-0.8L428.26-0.8 428.21-3.1Q428.06-3.8 427.46-3.2L427.46-3.2ZM428.11-12.7L428.11-12.7Q428.11-13.55 427.41-13.5L427.41-13.5 424.11-13.2Q421.81-13.1 420.01-12.63 418.21-12.15 416.96-11.4 415.71-10.65 415.06-9.63 414.41-8.6 414.41-7.25L414.41-7.25Q414.41-5.05 415.94-3.83 417.46-2.6 420.06-2.6L420.06-2.6Q421.66-2.6 423.14-3.18 424.61-3.75 425.71-4.65L425.71-4.65Q426.86-5.6 427.49-6.6 428.11-7.6 428.11-8.55L428.11-8.55 428.11-12.7ZM440.31 0L440.31 0Q439.96 0 439.78-0.18 439.61-0.35 439.61-0.65L439.61-0.65 439.61-25.85Q439.61-26.5 440.16-26.5L440.16-26.5 443.06-26.5Q443.61-26.5 443.61-25.95L443.61-25.95 443.61-22.7Q443.61-22.4 443.76-22.35 443.91-22.3 444.16-22.55L444.16-22.55Q445.46-24.1 446.73-25.08 448.01-26.05 449.31-26.53 450.61-27 451.91-27L451.91-27Q453.66-27 453.66-26.35L453.66-26.35 453.66-23.35Q453.66-22.85 453.21-22.95L453.21-22.95Q452.76-23 452.18-23.05 451.61-23.1 450.96-23.1L450.96-23.1Q449.86-23.1 448.61-22.63 447.36-22.15 446.28-21.3 445.21-20.45 444.51-19.4 443.81-18.35 443.81-17.3L443.81-17.3 443.81-0.75Q443.81 0 443.06 0L443.06 0 440.31 0ZM462.96-25.85L462.96-0.85Q462.96-0.35 462.78-0.18 462.61 0 462.06 0L462.06 0 459.51 0Q459.06 0 458.91-0.15 458.76-0.3 458.76-0.7L458.76-0.7 458.76-25.8Q458.76-26.5 459.36-26.5L459.36-26.5 462.41-26.5Q462.96-26.5 462.96-25.85L462.96-25.85ZM463.16-36.35L463.16-32.2Q463.16-31.25 462.26-31.25L462.26-31.25 459.36-31.25Q458.91-31.25 458.76-31.48 458.61-31.7 458.61-32.1L458.61-32.1 458.61-36.3Q458.61-37.1 459.31-37.1L459.31-37.1 462.46-37.1Q463.16-37.1 463.16-36.35L463.16-36.35ZM483.8 0L482.2 0Q481.75 0 481.57-0.2 481.4-0.4 481.4-0.8L481.4-0.8 481.4-36.4Q481.4-37.1 482-37.1L482-37.1 485.1-37.1Q485.6-37.1 485.6-36.4L485.6-36.4 485.6-24.15Q485.6-23.6 485.8-23.58 486-23.55 486.35-23.85L486.35-23.85Q486.8-24.3 487.82-25.05 488.85-25.8 490.48-26.4 492.1-27 494.35-27L494.35-27Q498-27 500.35-25.2 502.7-23.4 503.88-20.33 505.05-17.25 505.05-13.4L505.05-13.4Q505.05-7 502.05-3.25 499.05 0.5 493.65 0.5L493.65 0.5Q491.35 0.5 489.73-0.2 488.1-0.9 487.05-1.85 486-2.8 485.5-3.45L485.5-3.45Q485.3-3.7 485.15-3.65 485-3.6 484.95-3.3L484.95-3.3 484.7-0.8Q484.6 0 483.8 0L483.8 0ZM485.6-20.25L485.6-8.95Q485.6-7.15 486.63-5.68 487.65-4.2 489.3-3.35 490.95-2.5 492.75-2.5L492.75-2.5Q495-2.5 496.8-3.63 498.6-4.75 499.65-7.15 500.7-9.55 500.7-13.3L500.7-13.3Q500.7-18.4 498.75-21.18 496.8-23.95 493.1-23.95L493.1-23.95Q490.75-23.95 488.82-22.88 486.9-21.8 485.6-20.25L485.6-20.25ZM526.6-3.2L526.6-3.2Q524.75-1.4 522.57-0.45 520.4 0.5 517.7 0.5L517.7 0.5Q513.8 0.5 511.57-1.5 509.35-3.5 509.35-6.75L509.35-6.75Q509.35-9.4 510.85-11.33 512.35-13.25 515.3-14.38 518.25-15.5 522.55-15.75L522.55-15.75 526.45-16.05Q526.75-16.1 527-16.25 527.25-16.4 527.25-16.8L527.25-16.8 527.25-18.15Q527.25-20.85 525.57-22.43 523.9-24 521.05-24L521.05-24Q518.85-24 517.07-23 515.3-22 513.9-20L513.9-20Q513.7-19.75 513.57-19.68 513.45-19.6 513.15-19.7L513.15-19.7 510.45-20.6Q510.3-20.7 510.22-20.85 510.15-21 510.35-21.4L510.35-21.4Q511.85-24 514.57-25.5 517.3-27 521.25-27L521.25-27Q524.6-27 526.82-25.98 529.05-24.95 530.17-23.03 531.3-21.1 531.3-18.45L531.3-18.45 531.3-0.75Q531.3-0.3 531.15-0.15 531 0 530.65 0L530.65 0 528.1 0Q527.75 0 527.6-0.23 527.45-0.45 527.4-0.8L527.4-0.8 527.35-3.1Q527.2-3.8 526.6-3.2L526.6-3.2ZM527.25-12.7L527.25-12.7Q527.25-13.55 526.55-13.5L526.55-13.5 523.25-13.2Q520.95-13.1 519.15-12.63 517.35-12.15 516.1-11.4 514.85-10.65 514.2-9.63 513.55-8.6 513.55-7.25L513.55-7.25Q513.55-5.05 515.07-3.83 516.6-2.6 519.2-2.6L519.2-2.6Q520.8-2.6 522.27-3.18 523.75-3.75 524.85-4.65L524.85-4.65Q526-5.6 526.62-6.6 527.25-7.6 527.25-8.55L527.25-8.55 527.25-12.7ZM549.75-27L549.75-27Q552.35-27 554.32-26.18 556.29-25.35 557.72-23.93 559.14-22.5 560.1-20.8L560.1-20.8Q560.39-20.2 559.85-20.05L559.85-20.05 557.1-19.4Q556.75-19.25 556.44-19.7L556.44-19.7Q555.44-21.15 554.47-22.05 553.5-22.95 552.39-23.43 551.29-23.9 550-23.9L550-23.9Q547.44-23.9 545.52-22.63 543.6-21.35 542.54-18.95 541.5-16.55 541.5-13.25L541.5-13.25Q541.5-9.9 542.57-7.5 543.64-5.1 545.57-3.85 547.5-2.6 550.1-2.6L550.1-2.6Q552.5-2.6 554.25-3.8 556-5 557.44-7.3L557.44-7.3Q557.6-7.55 557.72-7.58 557.85-7.6 558.1-7.5L558.1-7.5 560.25-6.7Q560.6-6.55 560.44-6.05L560.44-6.05Q559.69-4.75 558.69-3.55 557.69-2.35 556.37-1.45 555.04-0.55 553.39-0.03 551.75 0.5 549.75 0.5L549.75 0.5Q546.04 0.5 543.22-1.23 540.39-2.95 538.79-6.03 537.19-9.1 537.19-13.15L537.19-13.15Q537.19-17.25 538.82-20.35 540.44-23.45 543.27-25.23 546.1-27 549.75-27L549.75-27ZM581.09-3.2L581.09-3.2Q579.24-1.4 577.07-0.45 574.89 0.5 572.19 0.5L572.19 0.5Q568.29 0.5 566.07-1.5 563.84-3.5 563.84-6.75L563.84-6.75Q563.84-9.4 565.34-11.33 566.84-13.25 569.79-14.38 572.74-15.5 577.04-15.75L577.04-15.75 580.94-16.05Q581.24-16.1 581.49-16.25 581.74-16.4 581.74-16.8L581.74-16.8 581.74-18.15Q581.74-20.85 580.07-22.43 578.39-24 575.54-24L575.54-24Q573.34-24 571.57-23 569.79-22 568.39-20L568.39-20Q568.19-19.75 568.07-19.68 567.94-19.6 567.64-19.7L567.64-19.7 564.94-20.6Q564.79-20.7 564.72-20.85 564.64-21 564.84-21.4L564.84-21.4Q566.34-24 569.07-25.5 571.79-27 575.74-27L575.74-27Q579.09-27 581.32-25.98 583.54-24.95 584.67-23.03 585.79-21.1 585.79-18.45L585.79-18.45 585.79-0.75Q585.79-0.3 585.64-0.15 585.49 0 585.14 0L585.14 0 582.59 0Q582.24 0 582.09-0.23 581.94-0.45 581.89-0.8L581.89-0.8 581.84-3.1Q581.69-3.8 581.09-3.2L581.09-3.2ZM581.74-12.7L581.74-12.7Q581.74-13.55 581.04-13.5L581.04-13.5 577.74-13.2Q575.44-13.1 573.64-12.63 571.84-12.15 570.59-11.4 569.34-10.65 568.69-9.63 568.04-8.6 568.04-7.25L568.04-7.25Q568.04-5.05 569.57-3.83 571.09-2.6 573.69-2.6L573.69-2.6Q575.29-2.6 576.77-3.18 578.24-3.75 579.34-4.65L579.34-4.65Q580.49-5.6 581.12-6.6 581.74-7.6 581.74-8.55L581.74-8.55 581.74-12.7ZM606.34 0L604.74 0Q604.29 0 604.11-0.2 603.94-0.4 603.94-0.8L603.94-0.8 603.94-36.4Q603.94-37.1 604.54-37.1L604.54-37.1 607.64-37.1Q608.14-37.1 608.14-36.4L608.14-36.4 608.14-24.15Q608.14-23.6 608.34-23.58 608.54-23.55 608.89-23.85L608.89-23.85Q609.34-24.3 610.36-25.05 611.39-25.8 613.01-26.4 614.64-27 616.89-27L616.89-27Q620.54-27 622.89-25.2 625.24-23.4 626.41-20.33 627.59-17.25 627.59-13.4L627.59-13.4Q627.59-7 624.59-3.25 621.59 0.5 616.19 0.5L616.19 0.5Q613.89 0.5 612.26-0.2 610.64-0.9 609.59-1.85 608.54-2.8 608.04-3.45L608.04-3.45Q607.84-3.7 607.69-3.65 607.54-3.6 607.49-3.3L607.49-3.3 607.24-0.8Q607.14 0 606.34 0L606.34 0ZM608.14-20.25L608.14-8.95Q608.14-7.15 609.16-5.68 610.19-4.2 611.84-3.35 613.49-2.5 615.29-2.5L615.29-2.5Q617.54-2.5 619.34-3.63 621.14-4.75 622.19-7.15 623.24-9.55 623.24-13.3L623.24-13.3Q623.24-18.4 621.29-21.18 619.34-23.95 615.64-23.95L615.64-23.95Q613.29-23.95 611.36-22.88 609.44-21.8 608.14-20.25L608.14-20.25ZM636.68-11.6L636.68-11.6Q636.68-9.15 637.86-7.13 639.03-5.1 641.01-3.9 642.98-2.7 645.43-2.7L645.43-2.7Q647.93-2.7 649.88-3.73 651.83-4.75 653.23-6.85L653.23-6.85Q653.43-7.05 653.56-7.08 653.68-7.1 653.93-7L653.93-7 656.03-5.95Q656.48-5.7 656.13-5.25L656.13-5.25Q654.78-3.25 653.16-1.98 651.53-0.7 649.53-0.1 647.53 0.5 645.03 0.5L645.03 0.5Q641.33 0.5 638.48-1.2 635.63-2.9 633.98-5.95 632.33-9 632.33-13L632.33-13Q632.33-17.35 634.01-20.48 635.68-23.6 638.56-25.3 641.43-27 644.98-27L644.98-27Q648.63-27 651.33-25.4 654.03-23.8 655.53-20.75 657.03-17.7 657.03-13.4L657.03-13.4Q657.03-13.05 656.96-12.7 656.88-12.35 656.28-12.35L656.28-12.35 637.13-12.35Q636.93-12.35 636.81-12.13 636.68-11.9 636.68-11.6L636.68-11.6ZM636.78-15.1L651.98-15.1Q652.53-15.1 652.68-15.23 652.83-15.35 652.83-15.8L652.83-15.8Q652.83-17.95 651.91-19.83 650.98-21.7 649.26-22.85 647.53-24 645.08-24L645.08-24Q642.38-24 640.53-22.73 638.68-21.45 637.73-19.4 636.78-17.35 636.78-15.1L636.78-15.1ZM663.63 0L663.63 0Q663.28 0 663.11-0.18 662.93-0.35 662.93-0.65L662.93-0.65 662.93-25.85Q662.93-26.5 663.48-26.5L663.48-26.5 666.38-26.5Q666.93-26.5 666.93-25.95L666.93-25.95 666.93-22.7Q666.93-22.4 667.08-22.35 667.23-22.3 667.48-22.55L667.48-22.55Q668.78-24.1 670.06-25.08 671.33-26.05 672.63-26.53 673.93-27 675.23-27L675.23-27Q676.98-27 676.98-26.35L676.98-26.35 676.98-23.35Q676.98-22.85 676.53-22.95L676.53-22.95Q676.08-23 675.51-23.05 674.93-23.1 674.28-23.1L674.28-23.1Q673.18-23.1 671.93-22.63 670.68-22.15 669.61-21.3 668.53-20.45 667.83-19.4 667.13-18.35 667.13-17.3L667.13-17.3 667.13-0.75Q667.13 0 666.38 0L666.38 0 663.63 0ZM686.28-25.85L686.28-0.85Q686.28-0.35 686.1-0.18 685.93 0 685.38 0L685.38 0 682.83 0Q682.38 0 682.23-0.15 682.08-0.3 682.08-0.7L682.08-0.7 682.08-25.8Q682.08-26.5 682.68-26.5L682.68-26.5 685.73-26.5Q686.28-26.5 686.28-25.85L686.28-25.85ZM686.48-36.35L686.48-32.2Q686.48-31.25 685.58-31.25L685.58-31.25 682.68-31.25Q682.23-31.25 682.08-31.48 681.93-31.7 681.93-32.1L681.93-32.1 681.93-36.3Q681.93-37.1 682.63-37.1L682.63-37.1 685.78-37.1Q686.48-37.1 686.48-36.35L686.48-36.35ZM707.38-23.35L701.03-23.35Q700.63-23.35 700.63-22.95L700.63-22.95 700.63-7.1Q700.63-4.75 701.43-3.95 702.23-3.15 703.83-3.15L703.83-3.15 707.28-3.15Q707.53-3.15 707.68-3.03 707.83-2.9 707.83-2.6L707.83-2.6 707.78-0.9Q707.78-0.4 707.18-0.25L707.18-0.25Q706.68-0.15 705.75-0.1 704.83-0.05 703.95-0.03 703.08 0 702.48 0L702.48 0Q699.33 0 697.88-1.48 696.43-2.95 696.43-6.15L696.43-6.15 696.43-22.85Q696.43-23.35 695.93-23.35L695.93-23.35 691.93-23.35Q691.38-23.35 691.38-23.9L691.38-23.9 691.38-26Q691.38-26.5 691.88-26.5L691.88-26.5 696.13-26.5Q696.48-26.5 696.48-26.9L696.48-26.9 697.03-34.85Q697.08-35.5 697.58-35.5L697.58-35.5 700.08-35.5Q700.68-35.5 700.68-34.8L700.68-34.8 700.68-26.9Q700.68-26.5 701.08-26.5L701.08-26.5 707.38-26.5Q707.93-26.5 707.93-26.05L707.93-26.05 707.93-23.9Q707.93-23.35 707.38-23.35L707.38-23.35ZM728.62-3.2L728.62-3.2Q726.77-1.4 724.6-0.45 722.42 0.5 719.72 0.5L719.72 0.5Q715.82 0.5 713.6-1.5 711.37-3.5 711.37-6.75L711.37-6.75Q711.37-9.4 712.87-11.33 714.37-13.25 717.32-14.38 720.27-15.5 724.57-15.75L724.57-15.75 728.47-16.05Q728.77-16.1 729.02-16.25 729.27-16.4 729.27-16.8L729.27-16.8 729.27-18.15Q729.27-20.85 727.6-22.43 725.92-24 723.07-24L723.07-24Q720.87-24 719.1-23 717.32-22 715.92-20L715.92-20Q715.72-19.75 715.6-19.68 715.47-19.6 715.17-19.7L715.17-19.7 712.47-20.6Q712.32-20.7 712.25-20.85 712.17-21 712.37-21.4L712.37-21.4Q713.87-24 716.6-25.5 719.32-27 723.27-27L723.27-27Q726.62-27 728.85-25.98 731.07-24.95 732.2-23.03 733.32-21.1 733.32-18.45L733.32-18.45 733.32-0.75Q733.32-0.3 733.17-0.15 733.02 0 732.67 0L732.67 0 730.12 0Q729.77 0 729.62-0.23 729.47-0.45 729.42-0.8L729.42-0.8 729.37-3.1Q729.22-3.8 728.62-3.2L728.62-3.2ZM729.27-12.7L729.27-12.7Q729.27-13.55 728.57-13.5L728.57-13.5 725.27-13.2Q722.97-13.1 721.17-12.63 719.37-12.15 718.12-11.4 716.87-10.65 716.22-9.63 715.57-8.6 715.57-7.25L715.57-7.25Q715.57-5.05 717.1-3.83 718.62-2.6 721.22-2.6L721.22-2.6Q722.82-2.6 724.3-3.18 725.77-3.75 726.87-4.65L726.87-4.65Q728.02-5.6 728.65-6.6 729.27-7.6 729.27-8.55L729.27-8.55 729.27-12.7ZM753.87 0L752.27 0Q751.82 0 751.64-0.2 751.47-0.4 751.47-0.8L751.47-0.8 751.47-36.4Q751.47-37.1 752.07-37.1L752.07-37.1 755.17-37.1Q755.67-37.1 755.67-36.4L755.67-36.4 755.67-24.15Q755.67-23.6 755.87-23.58 756.07-23.55 756.42-23.85L756.42-23.85Q756.87-24.3 757.89-25.05 758.92-25.8 760.54-26.4 762.17-27 764.42-27L764.42-27Q768.07-27 770.42-25.2 772.77-23.4 773.94-20.33 775.12-17.25 775.12-13.4L775.12-13.4Q775.12-7 772.12-3.25 769.12 0.5 763.72 0.5L763.72 0.5Q761.42 0.5 759.79-0.2 758.17-0.9 757.12-1.85 756.07-2.8 755.57-3.45L755.57-3.45Q755.37-3.7 755.22-3.65 755.07-3.6 755.02-3.3L755.02-3.3 754.77-0.8Q754.67 0 753.87 0L753.87 0ZM755.67-20.25L755.67-8.95Q755.67-7.15 756.69-5.68 757.72-4.2 759.37-3.35 761.02-2.5 762.82-2.5L762.82-2.5Q765.07-2.5 766.87-3.63 768.67-4.75 769.72-7.15 770.77-9.55 770.77-13.3L770.77-13.3Q770.77-18.4 768.82-21.18 766.87-23.95 763.17-23.95L763.17-23.95Q760.82-23.95 758.89-22.88 756.97-21.8 755.67-20.25L755.67-20.25ZM784.22-11.6L784.22-11.6Q784.22-9.15 785.39-7.13 786.57-5.1 788.54-3.9 790.52-2.7 792.97-2.7L792.97-2.7Q795.47-2.7 797.42-3.73 799.37-4.75 800.77-6.85L800.77-6.85Q800.97-7.05 801.09-7.08 801.22-7.1 801.47-7L801.47-7 803.57-5.95Q804.02-5.7 803.67-5.25L803.67-5.25Q802.32-3.25 800.69-1.98 799.07-0.7 797.07-0.1 795.07 0.5 792.57 0.5L792.57 0.5Q788.87 0.5 786.02-1.2 783.17-2.9 781.52-5.95 779.87-9 779.87-13L779.87-13Q779.87-17.35 781.54-20.48 783.22-23.6 786.09-25.3 788.97-27 792.52-27L792.52-27Q796.17-27 798.87-25.4 801.57-23.8 803.07-20.75 804.57-17.7 804.57-13.4L804.57-13.4Q804.57-13.05 804.49-12.7 804.42-12.35 803.82-12.35L803.82-12.35 784.67-12.35Q784.47-12.35 784.34-12.13 784.22-11.9 784.22-11.6L784.22-11.6ZM784.32-15.1L799.52-15.1Q800.07-15.1 800.22-15.23 800.37-15.35 800.37-15.8L800.37-15.8Q800.37-17.95 799.44-19.83 798.52-21.7 796.79-22.85 795.07-24 792.62-24L792.62-24Q789.92-24 788.07-22.73 786.22-21.45 785.27-19.4 784.32-17.35 784.32-15.1L784.32-15.1ZM811.16 0L811.16 0Q810.81 0 810.64-0.18 810.46-0.35 810.46-0.65L810.46-0.65 810.46-25.85Q810.46-26.5 811.01-26.5L811.01-26.5 813.91-26.5Q814.46-26.5 814.46-25.95L814.46-25.95 814.46-22.7Q814.46-22.4 814.61-22.35 814.76-22.3 815.01-22.55L815.01-22.55Q816.31-24.1 817.59-25.08 818.86-26.05 820.16-26.53 821.46-27 822.76-27L822.76-27Q824.51-27 824.51-26.35L824.51-26.35 824.51-23.35Q824.51-22.85 824.06-22.95L824.06-22.95Q823.61-23 823.04-23.05 822.46-23.1 821.81-23.1L821.81-23.1Q820.71-23.1 819.46-22.63 818.21-22.15 817.14-21.3 816.06-20.45 815.36-19.4 814.66-18.35 814.66-17.3L814.66-17.3 814.66-0.75Q814.66 0 813.91 0L813.91 0 811.16 0ZM845.01-20.65L845.01-20.65Q844.01-22.15 842.21-23.1 840.41-24.05 837.91-24.05L837.91-24.05Q835.21-24.05 833.44-22.9 831.66-21.75 831.66-19.8L831.66-19.8Q831.66-18.75 832.46-17.82 833.26-16.9 835.71-16.1L835.71-16.1 842.06-14.2Q845.51-13.25 847.04-11.45 848.56-9.65 848.56-7.3L848.56-7.3Q848.56-4.95 847.16-3.2 845.76-1.45 843.31-0.48 840.86 0.5 837.76 0.5L837.76 0.5Q833.81 0.5 830.86-1.07 827.91-2.65 826.66-5L826.66-5Q826.51-5.25 826.51-5.45 826.51-5.65 826.76-5.8L826.76-5.8 828.71-6.9Q828.96-7.05 829.16-7.03 829.36-7 829.46-6.85L829.46-6.85Q830.31-5.55 831.44-4.6 832.56-3.65 834.14-3.1 835.71-2.55 837.81-2.55L837.81-2.55Q839.71-2.6 841.26-3.1 842.81-3.6 843.71-4.58 844.61-5.55 844.61-6.85L844.61-6.85Q844.61-8.2 843.51-9.18 842.41-10.15 839.71-10.9L839.71-10.9 834.56-12.35Q830.81-13.35 829.29-15.05 827.76-16.75 827.71-19.05L827.71-19.05Q827.71-21.45 829.01-23.23 830.31-25 832.64-26 834.96-27 837.96-27L837.96-27Q841.31-27 843.94-25.73 846.56-24.45 847.91-22.35L847.91-22.35Q848.06-22.15 848.06-21.98 848.06-21.8 847.86-21.65L847.86-21.65 845.76-20.5Q845.56-20.4 845.39-20.43 845.21-20.45 845.01-20.65L845.01-20.65ZM869.96-3.2L869.96-3.2Q868.11-1.4 865.93-0.45 863.76 0.5 861.06 0.5L861.06 0.5Q857.16 0.5 854.93-1.5 852.71-3.5 852.71-6.75L852.71-6.75Q852.71-9.4 854.21-11.33 855.71-13.25 858.66-14.38 861.61-15.5 865.91-15.75L865.91-15.75 869.81-16.05Q870.11-16.1 870.36-16.25 870.61-16.4 870.61-16.8L870.61-16.8 870.61-18.15Q870.61-20.85 868.93-22.43 867.26-24 864.41-24L864.41-24Q862.21-24 860.43-23 858.66-22 857.26-20L857.26-20Q857.06-19.75 856.93-19.68 856.81-19.6 856.51-19.7L856.51-19.7 853.81-20.6Q853.66-20.7 853.58-20.85 853.51-21 853.71-21.4L853.71-21.4Q855.21-24 857.93-25.5 860.66-27 864.61-27L864.61-27Q867.96-27 870.18-25.98 872.41-24.95 873.53-23.03 874.66-21.1 874.66-18.45L874.66-18.45 874.66-0.75Q874.66-0.3 874.51-0.15 874.36 0 874.01 0L874.01 0 871.46 0Q871.11 0 870.96-0.23 870.81-0.45 870.76-0.8L870.76-0.8 870.71-3.1Q870.56-3.8 869.96-3.2L869.96-3.2ZM870.61-12.7L870.61-12.7Q870.61-13.55 869.91-13.5L869.91-13.5 866.61-13.2Q864.31-13.1 862.51-12.63 860.71-12.15 859.46-11.4 858.21-10.65 857.56-9.63 856.91-8.6 856.91-7.25L856.91-7.25Q856.91-5.05 858.43-3.83 859.96-2.6 862.56-2.6L862.56-2.6Q864.16-2.6 865.63-3.18 867.11-3.75 868.21-4.65L868.21-4.65Q869.36-5.6 869.98-6.6 870.61-7.6 870.61-8.55L870.61-8.55 870.61-12.7ZM882.81 0L882.81 0Q882.11 0 882.11-0.65L882.11-0.65 882.11-25.85Q882.11-26.5 882.66-26.5L882.66-26.5 885.66-26.5Q886.16-26.5 886.16-25.95L886.16-25.95 886.16-23.05Q886.16-22.8 886.28-22.75 886.41-22.7 886.66-22.9L886.66-22.9Q888.26-24.2 889.63-25.13 891.01-26.05 892.43-26.53 893.86-27 895.51-27L895.51-27Q898.46-27 900.23-25.65 902.01-24.3 902.61-22.6L902.61-22.6Q902.71-22.4 902.91-22.45 903.11-22.5 903.31-22.7L903.31-22.7Q904.91-24.05 906.33-25 907.76-25.95 909.23-26.48 910.71-27 912.36-27L912.36-27Q916.01-27 918.01-24.93 920.01-22.85 920.01-19.35L920.01-19.35 920.01-0.8Q920.01 0 919.26 0L919.26 0 916.46 0Q916.11 0 915.96-0.18 915.81-0.35 915.81-0.65L915.81-0.65 915.81-18.5Q915.81-20.95 914.63-22.33 913.46-23.7 910.96-23.7L910.96-23.7Q909.51-23.7 908.18-23.15 906.86-22.6 905.78-21.8 904.71-21 903.86-20.3L903.86-20.3Q903.46-19.95 903.31-19.63 903.16-19.3 903.16-18.8L903.16-18.8 903.16-0.8Q903.16 0 902.41 0L902.41 0 899.61 0Q899.31 0 899.13-0.18 898.96-0.35 898.96-0.65L898.96-0.65 898.96-18.5Q898.96-20.95 897.81-22.33 896.66-23.7 894.16-23.7L894.16-23.7Q892.06-23.7 890.31-22.7 888.56-21.7 886.31-19.65L886.31-19.65 886.31-0.75Q886.31 0 885.56 0L885.56 0 882.81 0ZM942.65-3.2L942.65-3.2Q940.8-1.4 938.63-0.45 936.45 0.5 933.75 0.5L933.75 0.5Q929.85 0.5 927.63-1.5 925.4-3.5 925.4-6.75L925.4-6.75Q925.4-9.4 926.9-11.33 928.4-13.25 931.35-14.38 934.3-15.5 938.6-15.75L938.6-15.75 942.5-16.05Q942.8-16.1 943.05-16.25 943.3-16.4 943.3-16.8L943.3-16.8 943.3-18.15Q943.3-20.85 941.63-22.43 939.95-24 937.1-24L937.1-24Q934.9-24 933.13-23 931.35-22 929.95-20L929.95-20Q929.75-19.75 929.63-19.68 929.5-19.6 929.2-19.7L929.2-19.7 926.5-20.6Q926.35-20.7 926.28-20.85 926.2-21 926.4-21.4L926.4-21.4Q927.9-24 930.63-25.5 933.35-27 937.3-27L937.3-27Q940.65-27 942.88-25.98 945.1-24.95 946.23-23.03 947.35-21.1 947.35-18.45L947.35-18.45 947.35-0.75Q947.35-0.3 947.2-0.15 947.05 0 946.7 0L946.7 0 944.15 0Q943.8 0 943.65-0.23 943.5-0.45 943.45-0.8L943.45-0.8 943.4-3.1Q943.25-3.8 942.65-3.2L942.65-3.2ZM943.3-12.7L943.3-12.7Q943.3-13.55 942.6-13.5L942.6-13.5 939.3-13.2Q937-13.1 935.2-12.63 933.4-12.15 932.15-11.4 930.9-10.65 930.25-9.63 929.6-8.6 929.6-7.25L929.6-7.25Q929.6-5.05 931.13-3.83 932.65-2.6 935.25-2.6L935.25-2.6Q936.85-2.6 938.33-3.18 939.8-3.75 940.9-4.65L940.9-4.65Q942.05-5.6 942.68-6.6 943.3-7.6 943.3-8.55L943.3-8.55 943.3-12.7ZM977.7-0.8L977.7-0.8Q977.9-0.5 977.8-0.25 977.7 0 977.25 0L977.25 0 973.75 0Q973.45 0 973.23-0.15 973-0.3 972.85-0.6L972.85-0.6 965.3-13.55Q965.2-13.75 965.08-13.83 964.95-13.9 964.7-13.65L964.7-13.65 959.4-8.3Q959.2-8.1 959.13-7.88 959.05-7.65 959.05-7.3L959.05-7.3 959.05-0.85Q959.05-0.35 958.88-0.18 958.7 0 958.15 0L958.15 0 955.6 0Q955.1 0 954.98-0.15 954.85-0.3 954.85-0.7L954.85-0.7 954.85-36.4Q954.85-37.1 955.4-37.1L955.4-37.1 958.45-37.1Q959.05-37.1 959.05-36.45L959.05-36.45 959.05-13.25Q959.05-12.85 959.15-12.78 959.25-12.7 959.55-13.05L959.55-13.05 971.9-25.9Q972.45-26.5 972.95-26.5L972.95-26.5 976-26.5Q976.5-26.5 976.58-26.23 976.65-25.95 976.25-25.55L976.25-25.55 968.35-17.5Q968.2-17.35 968.18-17.15 968.15-16.95 968.3-16.65L968.3-16.65 977.7-0.8ZM991.35-2.8L991.35-2.8Q993.5-2.8 995.47-3.98 997.45-5.15 999.4-7.15L999.4-7.15 999.4-25.75Q999.4-26.5 1000.2-26.5L1000.2-26.5 1002.95-26.5Q1003.65-26.5 1003.65-25.8L1003.65-25.8 1003.55-0.65Q1003.55 0 1003 0L1003 0 1000.1 0Q999.55 0 999.55-0.55L999.55-0.55 999.55-3.5Q999.55-3.75 999.45-3.8 999.35-3.85 999.1-3.65L999.1-3.65Q996.35-1.3 994.22-0.4 992.1 0.5 990 0.5L990 0.5Q987.7 0.5 985.9-0.45 984.1-1.4 983.05-3.13 982-4.85 982-7.15L982-7.15 982-25.7Q982-26.5 982.75-26.5L982.75-26.5 985.55-26.5Q986.2-26.5 986.2-25.8L986.2-25.8 986.2-8.25Q986.2-5.8 987.57-4.3 988.95-2.8 991.35-2.8L991.35-2.8Z" opacity="1" transform="matrix(1,0,0,1,0,0)" fill="#ffffff" class="slogan-text-1" data-fill-palette-color="secondary" id="text-1"></path></svg></g></svg></g></svg></g></svg></g><g transform="matrix(1,0,0,1,140.5637436819822,0)"><svg viewBox="0 0 116.37011263603551 121.65966321040077" height="121.65966321040077" width="116.37011263603551"><g><svg xmlns="http://www.w3.org/2000/svg" xmlns:xlink="http://www.w3.org/1999/xlink" version="1.1" x="0" y="0" viewBox="2 1 44 46" enable-background="new 0 0 48 48" xml:space="preserve" height="121.65966321040077" width="116.37011263603551" class="icon-icon-0" data-fill-palette-color="accent" id="icon-0"><path fill-rule="evenodd" clip-rule="evenodd" d="M41 47L41 47H7l0 0c-2.762 0-5-2.238-5-5V2c0-0.552 0.447-1 1-1l0 0h34l0 0c0.414 0 0.77 0.252 0.922 0.611C37.972 1.73 38 1.862 38 2v0 14h7c0.553 0 1 0.448 1 1v25C46 44.762 43.762 47 41 47zM36 42V3H4v39l0 0 0 0c0 1.657 1.344 3 3 3h30.022C36.39 44.162 36 43.131 36 42zM44 18h-6v24c0 1.657 1.343 3 3 3s3-1.343 3-3V18zM7 40c0-0.552 0.447-1 1-1h9c0.553 0 1 0.448 1 1 0 0.553-0.447 1-1 1H8C7.447 41 7 40.553 7 40zM11.666 23.715c-0.381 0.381-0.999 0.381-1.381 0-0.381-0.381-0.381-1 0-1.381l5.905-5.905c0.032-0.047 0.053-0.101 0.095-0.143 0.197-0.197 0.457-0.288 0.715-0.282 0.258-0.006 0.518 0.084 0.715 0.282 0.042 0.042 0.062 0.096 0.095 0.143l4.19 4.19 2.19-2.19c0.032-0.047 0.053-0.101 0.095-0.143 0.197-0.197 0.457-0.288 0.715-0.281 0.258-0.007 0.518 0.084 0.715 0.281 0.042 0.042 0.062 0.096 0.095 0.143l3.905 3.905c0.381 0.381 0.381 1 0 1.381-0.382 0.381-1 0.381-1.381 0L25 20.381 23.381 22l0.334 0.334c0.381 0.381 0.381 1 0 1.381s-1 0.381-1.381 0L17 18.381 11.666 23.715zM23 29h9c0.553 0 1 0.448 1 1 0 0.553-0.447 1-1 1h-9c-0.553 0-1-0.447-1-1C22 29.448 22.447 29 23 29zM23 34h9c0.553 0 1 0.448 1 1 0 0.553-0.447 1-1 1h-9c-0.553 0-1-0.447-1-1C22 34.448 22.447 34 23 34zM23 39h9c0.553 0 1 0.448 1 1 0 0.553-0.447 1-1 1h-9c-0.553 0-1-0.447-1-1C22 39.448 22.447 39 23 39zM24 15.5c0 0.829-0.672 1.5-1.5 1.5S21 16.329 21 15.5s0.672-1.5 1.5-1.5S24 14.671 24 15.5zM27 10H13c-0.553 0-1-0.448-1-1s0.447-1 1-1h14c0.553 0 1 0.448 1 1S27.553 10 27 10zM8 34h9c0.553 0 1 0.448 1 1 0 0.553-0.447 1-1 1H8c-0.553 0-1-0.447-1-1C7 34.448 7.447 34 8 34zM18 30c0 0.553-0.447 1-1 1H8c-0.553 0-1-0.447-1-1 0-0.552 0.447-1 1-1h9C17.553 29 18 29.448 18 30z" fill="#ffffff" data-fill-palette-color="accent"></path></svg></g></svg></g><g></g></svg></g><defs></defs></svg><rect width="387.9568723978898" height="247.2" fill="none" stroke="none" visibility="hidden"></rect></g></svg></g></svg>