<svg xmlns="http://www.w3.org/2000/svg" version="1.1" xmlns:xlink="http://www.w3.org/1999/xlink" xmlns:svgjs="http://svgjs.dev/svgjs" width="1500" height="227" viewBox="0 0 1500 227"><g transform="matrix(1,0,0,1,-0.9090909090909918,0.32029664896873555)"><svg viewBox="0 0 396 60" data-background-color="#ddcaea" preserveAspectRatio="xMidYMid meet" height="227" width="1500" xmlns="http://www.w3.org/2000/svg" xmlns:xlink="http://www.w3.org/1999/xlink"><g id="tight-bounds" transform="matrix(1,0,0,1,0.2400000000000091,-0.08465990721640537)"><svg viewBox="0 0 395.52 60.1693198144328" height="60.1693198144328" width="395.52"><g><svg viewBox="0 0 513.8848134824716 78.17581839150228" height="60.1693198144328" width="395.52"><g><rect width="5.101285079587739" height="56.84999817905917" x="88.13101918878934" y="10.662910106221553" fill="#ff7c5e" opacity="1" stroke-width="0" stroke="transparent" fill-opacity="1" class="rect-qz-0" data-fill-palette-color="primary" rx="1%" id="qz-0" data-palette-color="#ff7c5e"></rect></g><g><rect width="5.101285079587739" height="56.84999817905917" x="99.90937897987936" y="10.662910106221553" fill="#ff7c5e" opacity="1" stroke-width="0" stroke="transparent" fill-opacity="1" class="rect-qz-1" data-fill-palette-color="primary" rx="1%" id="qz-1" data-palette-color="#ff7c5e"></rect></g><g transform="matrix(1,0,0,1,118.36481348247166,10.804328012139607)"><svg viewBox="0 0 395.52 56.56716236722306" height="56.56716236722306" width="395.52"><g id="textblocktransform"><svg viewBox="0 0 395.52 56.56716236722306" height="56.56716236722306" width="395.52" id="textblock"><g><svg viewBox="0 0 395.52 56.56716236722306" height="56.56716236722306" width="395.52"><g transform="matrix(1,0,0,1,0,0)"><svg width="395.52" viewBox="4 -37.5 263.57 37.7" height="56.56716236722306" data-palette-color="#ff7c5e"><path d="M7.4 0L4 0 4-35 7.4-35 7.4-18.3 19.45-35 23.35-35 11.1-18.55 25.75 0 21.85 0 7.4-18.3 7.4 0ZM29.95-19.9L29.05-22.3Q34.5-25 38.6-25.15L38.6-25.15Q41.85-25.15 43.62-24.33 45.4-23.5 46.5-22.03 47.6-20.55 47.6-17.9L47.6-17.9 47.6 0 44.35 0 44.35-1.9Q37.5 0.2 35.55 0.2L35.55 0.2Q35.45 0.2 35.4 0.2L35.4 0.2Q30.9 0.2 29.25-2.55L29.25-2.55Q28.65-3.55 28.57-4.5 28.5-5.45 28.5-6.1L28.5-6.1Q28.5-7.9 29.9-9.33 31.3-10.75 33.25-11.25L33.25-11.25Q36.55-12.1 44.35-12.75L44.35-12.75 44.35-16.8Q44.35-22.25 38.65-22.25L38.65-22.25Q34.65-22.25 29.95-19.9L29.95-19.9ZM31.55-5.7L31.55-5.7Q31.55-2.1 36.5-2.1L36.5-2.1Q40.45-2.1 44.35-3.8L44.35-3.8 44.35-10.95Q36.55-9.85 34.7-9.25L34.7-9.25Q31.55-8.25 31.55-5.7ZM55.84-37.5L55.84-23Q58.8-25.45 62.55-25.45L62.55-25.45Q68.94-25.45 71.5-19.8L71.5-19.8Q72.5-17.5 72.5-13.85L72.5-13.85Q72.5-7.1 68.94-3.55 65.39 0 59.74 0L59.74 0Q56.45 0 54.72-0.45 52.99-0.9 52.59-1.15L52.59-1.15 52.59-37.25 55.84-37.5ZM55.84-21.25L55.84-21.25 55.84-2.8Q57.3-2.45 58.99-2.45L58.99-2.45Q63.99-2.45 66.62-5.35 69.25-8.25 69.25-13.5 69.25-18.75 66.59-21L66.59-21Q64.75-22.55 61.8-22.55 58.84-22.55 55.84-21.25ZM77.34-19.9L76.44-22.3Q81.89-25 85.99-25.15L85.99-25.15Q89.24-25.15 91.02-24.33 92.79-23.5 93.89-22.03 94.99-20.55 94.99-17.9L94.99-17.9 94.99 0 91.74 0 91.74-1.9Q84.89 0.2 82.94 0.2L82.94 0.2Q82.84 0.2 82.79 0.2L82.79 0.2Q78.29 0.2 76.64-2.55L76.64-2.55Q76.04-3.55 75.97-4.5 75.89-5.45 75.89-6.1L75.89-6.1Q75.89-7.9 77.29-9.33 78.69-10.75 80.64-11.25L80.64-11.25Q83.94-12.1 91.74-12.75L91.74-12.75 91.74-16.8Q91.74-22.25 86.04-22.25L86.04-22.25Q82.04-22.25 77.34-19.9L77.34-19.9ZM78.94-5.7L78.94-5.7Q78.94-2.1 83.89-2.1L83.89-2.1Q87.84-2.1 91.74-3.8L91.74-3.8 91.74-10.95Q83.94-9.85 82.09-9.25L82.09-9.25Q78.94-8.25 78.94-5.7ZM114.34-24.5L113.04-21.5Q112.24-21.95 111.34-21.95 110.44-21.95 110.34-21.9L110.34-21.9Q108.44-21.9 106.52-20.53 104.59-19.15 103.24-17.45L103.24-17.45 103.24 0 99.99 0 99.99-25 103.24-25.25 103.24-19.65Q105.09-22 106.39-22.95L106.39-22.95Q108.79-24.75 110.99-24.85L110.99-24.85Q111.29-24.9 112.09-24.9 112.89-24.9 114.34-24.5L114.34-24.5ZM136.69 0L133.28 0 133.28-35 136.69-35 136.69-18.3 148.74-35 152.63-35 140.38-18.55 155.03 0 151.13 0 136.69-18.3 136.69 0ZM163.98-3.2L163.98-3.2Q165.08-2.8 167.48-2.8 169.88-2.8 173.68-4.75L173.68-4.75 173.68-25 176.93-25.25 176.93 0 173.68 0 173.68-2.7Q169.98 0.15 166.13 0.15L166.13 0.15Q161.33 0.15 159.18-2.7L159.18-2.7Q158.08-4.1 158.08-6.6L158.08-6.6 158.08-25 161.33-25.25 161.33-7.45Q161.33-4.35 163.98-3.2ZM187.18 0L183.93 0 183.93-37.25 187.18-37.5 187.18 0ZM193.23-25L196.48-25.25 196.48 0 193.23 0 193.23-25ZM194.73-31.7Q193.73-31.7 193.2-32.35 192.68-33 192.68-34 192.68-35 193.25-35.63 193.83-36.25 194.83-36.25 195.83-36.25 196.45-35.63 197.08-35 197.08-33.9 197.08-32.8 196.4-32.25 195.73-31.7 194.73-31.7ZM206.33-25.25L206.33-22.25Q210.08-25 213.43-25.15L213.43-25.15Q216.48-25.15 218.13-24.4 219.78-23.65 220.85-22.28 221.93-20.9 221.93-18.4L221.93-18.4 221.93 0 218.68 0 218.68-17.55Q218.68-19.4 217.88-20.4L217.88-20.4Q216.28-22.25 212.98-22.25L212.98-22.25Q209.83-22.1 206.33-20.2L206.33-20.2 206.33 0 203.08 0 203.08-25 206.33-25.25ZM230.92-12.3L230.92-11.5Q230.92-2.7 239.32-2.7L239.32-2.7Q242.87-2.7 245.82-3.65L245.82-3.65Q246.57-3.9 246.87-4.05L246.87-4.05 247.62-1.4Q245.87-0.35 241.27 0.1L241.27 0.1Q239.97 0.2 238.52 0.2L238.52 0.2Q234.32 0.2 231.52-1.9L231.52-1.9Q227.67-4.75 227.67-11.4 227.67-18.05 231.15-21.63 234.62-25.2 239.57-25.2 244.52-25.2 247.02-22L247.02-22Q248.92-19.45 248.92-15.25L248.92-15.25Q248.92-14.25 248.82-13.15L248.82-13.15 230.97-13.15Q230.92-12.75 230.92-12.3L230.92-12.3ZM239.77-22.1L239.77-22.1Q236.67-22.1 234.47-20.23 232.27-18.35 231.42-15.4L231.42-15.4 245.97-15.4Q245.72-20.95 241.67-21.85L241.67-21.85Q240.77-22.1 239.77-22.1ZM267.57-24.5L266.27-21.5Q265.47-21.95 264.57-21.95 263.67-21.95 263.57-21.9L263.57-21.9Q261.67-21.9 259.75-20.53 257.82-19.15 256.47-17.45L256.47-17.45 256.47 0 253.22 0 253.22-25 256.47-25.25 256.47-19.65Q258.32-22 259.62-22.95L259.62-22.95Q262.02-24.75 264.22-24.85L264.22-24.85Q264.52-24.9 265.32-24.9 266.12-24.9 267.57-24.5L267.57-24.5Z" opacity="1" transform="matrix(1,0,0,1,0,0)" fill="#ff7c5e" class="wordmark-text-0" data-fill-palette-color="primary" id="text-0"></path></svg></g></svg></g></svg></g></svg></g><g><svg viewBox="0 0 74.77686976578478 78.17581839150228" height="78.17581839150228" width="74.77686976578478"><g><svg xmlns="http://www.w3.org/2000/svg" xmlns:xlink="http://www.w3.org/1999/xlink" version="1.1" x="0" y="0" viewBox="2 1 44 46" enable-background="new 0 0 48 48" xml:space="preserve" height="78.17581839150228" width="74.77686976578478" class="icon-icon-0" data-fill-palette-color="accent" id="icon-0"><path fill-rule="evenodd" clip-rule="evenodd" d="M41 47L41 47H7l0 0c-2.762 0-5-2.238-5-5V2c0-0.552 0.447-1 1-1l0 0h34l0 0c0.414 0 0.77 0.252 0.922 0.611C37.972 1.73 38 1.862 38 2v0 14h7c0.553 0 1 0.448 1 1v25C46 44.762 43.762 47 41 47zM36 42V3H4v39l0 0 0 0c0 1.657 1.344 3 3 3h30.022C36.39 44.162 36 43.131 36 42zM44 18h-6v24c0 1.657 1.343 3 3 3s3-1.343 3-3V18zM7 40c0-0.552 0.447-1 1-1h9c0.553 0 1 0.448 1 1 0 0.553-0.447 1-1 1H8C7.447 41 7 40.553 7 40zM11.666 23.715c-0.381 0.381-0.999 0.381-1.381 0-0.381-0.381-0.381-1 0-1.381l5.905-5.905c0.032-0.047 0.053-0.101 0.095-0.143 0.197-0.197 0.457-0.288 0.715-0.282 0.258-0.006 0.518 0.084 0.715 0.282 0.042 0.042 0.062 0.096 0.095 0.143l4.19 4.19 2.19-2.19c0.032-0.047 0.053-0.101 0.095-0.143 0.197-0.197 0.457-0.288 0.715-0.281 0.258-0.007 0.518 0.084 0.715 0.281 0.042 0.042 0.062 0.096 0.095 0.143l3.905 3.905c0.381 0.381 0.381 1 0 1.381-0.382 0.381-1 0.381-1.381 0L25 20.381 23.381 22l0.334 0.334c0.381 0.381 0.381 1 0 1.381s-1 0.381-1.381 0L17 18.381 11.666 23.715zM23 29h9c0.553 0 1 0.448 1 1 0 0.553-0.447 1-1 1h-9c-0.553 0-1-0.447-1-1C22 29.448 22.447 29 23 29zM23 34h9c0.553 0 1 0.448 1 1 0 0.553-0.447 1-1 1h-9c-0.553 0-1-0.447-1-1C22 34.448 22.447 34 23 34zM23 39h9c0.553 0 1 0.448 1 1 0 0.553-0.447 1-1 1h-9c-0.553 0-1-0.447-1-1C22 39.448 22.447 39 23 39zM24 15.5c0 0.829-0.672 1.5-1.5 1.5S21 16.329 21 15.5s0.672-1.5 1.5-1.5S24 14.671 24 15.5zM27 10H13c-0.553 0-1-0.448-1-1s0.447-1 1-1h14c0.553 0 1 0.448 1 1S27.553 10 27 10zM8 34h9c0.553 0 1 0.448 1 1 0 0.553-0.447 1-1 1H8c-0.553 0-1-0.447-1-1C7 34.448 7.447 34 8 34zM18 30c0 0.553-0.447 1-1 1H8c-0.553 0-1-0.447-1-1 0-0.552 0.447-1 1-1h9C17.553 29 18 29.448 18 30z" fill="#ff7c5e" data-fill-palette-color="accent"></path></svg></g></svg></g></svg></g><defs></defs></svg><rect width="395.52" height="60.1693198144328" fill="none" stroke="none" visibility="hidden"></rect></g></svg></g></svg>